<svg version="1.1" xmlns="http://www.w3.org/2000/svg" xmlns:xlink="http://www.w3.org/1999/xlink" width="191.3" height="173.25" viewBox="0,0,191.3,173.25"><g transform="translate(-144.35,-93.375)"><g data-paper-data="{&quot;isPaintingLayer&quot;:true}" fill-rule="nonzero" stroke-linecap="butt" stroke-linejoin="miter" stroke-miterlimit="10" stroke-dasharray="" stroke-dashoffset="0" style="mix-blend-mode: normal"><path d="M175.316,193.368v-70.601h118.844v70.601z" fill="none" stroke="#ffffff" stroke-width="1"/><path d="M208.557,122.767v-16.179h52.068v16.179z" fill="none" stroke="#ffffff" stroke-width="1"/><path d="M157.078,188.661v-23.239h18.238v23.239z" fill="none" stroke="#ffffff" stroke-width="1"/><path d="M168.505,134.984v-6.668h6.667v6.668z" fill="none" stroke="#ffffff" stroke-width="1"/><path d="M150.084,157.208v-34.262h18.336v34.262z" fill="none" stroke="#ffffff" stroke-width="1"/><path d="M257.3,199.175v-5.6h7v5.6z" fill="none" stroke="#ffffff" stroke-width="1"/><path d="M250.15,265.875v-66.75h20.25v66.75z" fill="none" stroke="#ffffff" stroke-width="1"/><path d="M204.65,199.125v-5.75h6.75v5.75z" fill="none" stroke="#ffffff" stroke-width="1"/><path d="M198.4,266.125v-67h19.75v67z" fill="none" stroke="#ffffff" stroke-width="1"/><path d="M191.65,228.375v-6.75h6.75v6.75z" fill="none" stroke="#ffffff" stroke-width="1"/><path d="M172.9,242.875v-35h18.75v35z" fill="none" stroke="#ffffff" stroke-width="1"/><path d="M280.15,199.625v-6.25h7v6.25z" fill="none" stroke="#ffffff" stroke-width="1"/><path d="M277.9,233.125v-33.5h40v33.5z" fill="none" stroke="#ffffff" stroke-width="1"/><path d="M293.9,150.625v-6.25h6.75v6.25z" fill="none" stroke="#ffffff" stroke-width="1"/><path d="M300.65,192.125v-57.75h13.75v57.75z" fill="none" stroke="#ffffff" stroke-width="1"/><path d="M314.4,188.625v-6h6.5v6z" fill="none" stroke="#ffffff" stroke-width="1"/><path d="M314.4,160.625v-6.5h6.5v6.5z" fill="none" stroke="#ffffff" stroke-width="1"/><path d="M321.15,192.125v-13.75h13.75v13.75z" fill="none" stroke="#ffffff" stroke-width="1"/><path d="M320.9,164.625v-14h14.25v14z" fill="none" stroke="#ffffff" stroke-width="1"/><g><path d="M192.65,143.625v-18h25.75v18z" fill="#414141" stroke="#ffffff" stroke-width="2"/><text transform="translate(195.0413,132.93493) scale(0.32067,0.32067)" font-size="22" xml:space="preserve" fill="#ffffff" fill-rule="nonzero" stroke="none" stroke-width="1" stroke-linecap="butt" stroke-linejoin="miter" stroke-miterlimit="10" stroke-dasharray="" stroke-dashoffset="0" font-family="Sans Serif" font-weight="400" text-anchor="start" style="mix-blend-mode: normal"><tspan x="0" dy="0">CAM</tspan><tspan x="0" dy="24.86px">1B</tspan></text></g><g><path d="M200.35,112.375v-18h25.75v18z" fill="#414141" stroke="#ffffff" stroke-width="2"/><text transform="translate(202.6913,101.63493) scale(0.32067,0.32067)" font-size="22" xml:space="preserve" fill="#ffffff" fill-rule="nonzero" stroke="none" stroke-width="1" stroke-linecap="butt" stroke-linejoin="miter" stroke-miterlimit="10" stroke-dasharray="" stroke-dashoffset="0" font-family="Sans Serif" font-weight="400" text-anchor="start" style="mix-blend-mode: normal"><tspan x="0" dy="0">CAM</tspan><tspan x="0" dy="24.86px">1A</tspan></text></g><g><path d="M145.35,158.125v-18h25.75v18z" fill="#414141" stroke="#ffffff" stroke-width="2"/><text transform="translate(147.69135,147.43493) scale(0.32067,0.32067)" font-size="22" xml:space="preserve" fill="#ffffff" fill-rule="nonzero" stroke="none" stroke-width="1" stroke-linecap="butt" stroke-linejoin="miter" stroke-miterlimit="10" stroke-dasharray="" stroke-dashoffset="0" font-family="Sans Serif" font-weight="400" text-anchor="start" style="mix-blend-mode: normal"><tspan x="0" dy="0">CAM</tspan><tspan x="0" dy="24.86px">5</tspan></text></g><path d="M222.5521,235.125h23.6263v30h-23.6263z" fill="none" stroke="#ffffff" stroke-width="2.06278"/><text transform="translate(225.9319,249.73164) scale(0.31596,0.31596)" font-size="22" xml:space="preserve" fill="#ffffff" fill-rule="nonzero" stroke="none" stroke-width="1" stroke-linecap="butt" stroke-linejoin="miter" stroke-miterlimit="10" stroke-dasharray="" stroke-dashoffset="0" font-family="Sans Serif" font-weight="400" text-anchor="start" style="mix-blend-mode: normal"><tspan x="0" dy="0">YOU</tspan></text><g><path d="M169.35,181.125v-18h25.75v18z" fill="#414141" stroke="#ffffff" stroke-width="2"/><text transform="translate(171.6913,170.43493) scale(0.32067,0.32067)" font-size="22" xml:space="preserve" fill="#ffffff" fill-rule="nonzero" stroke="none" stroke-width="1" stroke-linecap="butt" stroke-linejoin="miter" stroke-miterlimit="10" stroke-dasharray="" stroke-dashoffset="0" font-family="Sans Serif" font-weight="400" text-anchor="start" style="mix-blend-mode: normal"><tspan x="0" dy="0">CAM</tspan><tspan x="0" dy="24.86px">1C</tspan></text></g><g><path d="M161.35,224.875v-18h25.75v18z" fill="#414141" stroke="#ffffff" stroke-width="2"/><text transform="translate(163.6913,214.18493) scale(0.32067,0.32067)" font-size="22" xml:space="preserve" fill="#ffffff" fill-rule="nonzero" stroke="none" stroke-width="1" stroke-linecap="butt" stroke-linejoin="miter" stroke-miterlimit="10" stroke-dasharray="" stroke-dashoffset="0" font-family="Sans Serif" font-weight="400" text-anchor="start" style="mix-blend-mode: normal"><tspan x="0" dy="0">CAM</tspan><tspan x="0" dy="24.86px">3</tspan></text></g><g><path d="M198.5,240.625v-18h25.75v18z" fill="#414141" stroke="#ffffff" stroke-width="2"/><text transform="translate(200.8413,229.93493) scale(0.32067,0.32067)" font-size="22" xml:space="preserve" fill="#ffffff" fill-rule="nonzero" stroke="none" stroke-width="1" stroke-linecap="butt" stroke-linejoin="miter" stroke-miterlimit="10" stroke-dasharray="" stroke-dashoffset="0" font-family="Sans Serif" font-weight="400" text-anchor="start" style="mix-blend-mode: normal"><tspan x="0" dy="0">CAM</tspan><tspan x="0" dy="24.86px">2A</tspan></text></g><g><path d="M198.65,262.125v-18h25.75v18z" fill="#414141" stroke="#ffffff" stroke-width="2"/><text transform="translate(200.9413,251.43493) scale(0.32067,0.32067)" font-size="22" xml:space="preserve" fill="#ffffff" fill-rule="nonzero" stroke="none" stroke-width="1" stroke-linecap="butt" stroke-linejoin="miter" stroke-miterlimit="10" stroke-dasharray="" stroke-dashoffset="0" font-family="Sans Serif" font-weight="400" text-anchor="start" style="mix-blend-mode: normal"><tspan x="0" dy="0">CAM</tspan><tspan x="0" dy="24.86px">2B</tspan></text></g><g><path d="M244.65,240.625v-18h25.75v18z" fill="#d6cf00" stroke="#ffffff" stroke-width="2"/><text transform="translate(246.991,229.93493) scale(0.32067,0.32067)" font-size="22" xml:space="preserve" fill="#ffffff" fill-rule="nonzero" stroke="none" stroke-width="1" stroke-linecap="butt" stroke-linejoin="miter" stroke-miterlimit="10" stroke-dasharray="" stroke-dashoffset="0" font-family="Sans Serif" font-weight="400" text-anchor="start" style="mix-blend-mode: normal"><tspan x="0" dy="0">CAM</tspan><tspan x="0" dy="24.86px">4A</tspan></text></g><g><path d="M244.7,262.375v-18h25.75v18z" fill="#414141" stroke="#ffffff" stroke-width="2"/><text transform="translate(247.091,251.68493) scale(0.32067,0.32067)" font-size="22" xml:space="preserve" fill="#ffffff" fill-rule="nonzero" stroke="none" stroke-width="1" stroke-linecap="butt" stroke-linejoin="miter" stroke-miterlimit="10" stroke-dasharray="" stroke-dashoffset="0" font-family="Sans Serif" font-weight="400" text-anchor="start" style="mix-blend-mode: normal"><tspan x="0" dy="0">CAM</tspan><tspan x="0" dy="24.86px">4B</tspan></text></g><g><path d="M306.4,220.625v-18h25.75v18z" fill="#414141" stroke="#ffffff" stroke-width="2"/><text transform="translate(308.741,209.93493) scale(0.32067,0.32067)" font-size="22" xml:space="preserve" fill="#ffffff" fill-rule="nonzero" stroke="none" stroke-width="1" stroke-linecap="butt" stroke-linejoin="miter" stroke-miterlimit="10" stroke-dasharray="" stroke-dashoffset="0" font-family="Sans Serif" font-weight="400" text-anchor="start" style="mix-blend-mode: normal"><tspan x="0" dy="0">CAM</tspan><tspan x="0" dy="24.86px">6</tspan></text></g><g><path d="M305.65,152.125v-18h25.75v18z" fill="#414141" stroke="#ffffff" stroke-width="2"/><text transform="translate(307.991,141.43493) scale(0.32067,0.32067)" font-size="22" xml:space="preserve" fill="#ffffff" fill-rule="nonzero" stroke="none" stroke-width="1" stroke-linecap="butt" stroke-linejoin="miter" stroke-miterlimit="10" stroke-dasharray="" stroke-dashoffset="0" font-family="Sans Serif" font-weight="400" text-anchor="start" style="mix-blend-mode: normal"><tspan x="0" dy="0">CAM</tspan><tspan x="0" dy="24.86px">7</tspan></text></g></g></g></svg>